<?xml version="1.0" encoding="UTF-8"?>
<svg width="248" height="38" xmlns="http://www.w3.org/2000/svg"><path d="M34.418 2.145c.281.14.469.363.562.667a426.192 426.192 0 0 0-1.44 9.106c-.306 3.14-.727 6.14-1.267 9 0 2.086-.668 4.969-2.003 8.648l-.81 3.832c0 1.29-.374 1.934-1.124 1.934-.281.375-.61.563-.984.563h-.247c-1.007-.235-1.828-.352-2.46-.352h-1.793c-.54 0-.914-.375-1.125-1.125.586-2.203 1.03-5.508 1.335-9.914.516-1.313.856-2.39 1.02-3.234l-.246-.141h-.106c-1.546 1.476-2.52 2.273-2.918 2.39 0 .376-1.09 1.606-3.269 3.692-.938 1.5-1.535 2.25-1.793 2.25-.656 0-1.066-.48-1.23-1.441l-.247-.141c-.046 0-.562.234-1.546.703-.563 0-1.5-1.875-2.813-5.625-.562-1.336-.984-2.086-1.266-2.25-.562 0-1.418 4.687-2.566 14.063A7.785 7.785 0 0 0 4.5 36H2.46C.82 36 0 35.695 0 35.086c.375-1.43.82-4.02 1.336-7.77 1.125-5.625 1.687-9 1.687-10.125.47-2.039.809-5.144 1.02-9.316.21-2.86.398-4.477.562-4.852h.457c.141 0 .481.118 1.02.352.188-.68.375-1.02.563-1.02h.316c.516.258 1.828 2.438 3.937 6.54 2.743 6.093 4.582 10.03 5.52 11.812l.246.105h.106c.14-.046 1.417-1.699 3.832-4.957 3.234-4.148 5.52-7.183 6.855-9.105.07-.305.738-.867 2.004-1.688.75-1.289 1.242-1.933 1.477-1.933h.105c.281.023.586.398.914 1.125h.316c.165 0 .692-.668 1.582-2.004l.563-.105zM7.102 4.043C5.977 10.23 5.414 14.355 5.414 16.418l-1.266 7.418c.47-.305.774-.457.915-.457.304.117.527.305.667.562v.457c0 .165-.07.247-.21.247h-.247c-.257 0-.632-.188-1.125-.563h-.105c-.234 0-.61 1.23-1.125 3.691l-.668 5.73c0 .259.75.446 2.25.563.586 0 .96-.937 1.125-2.812l1.688-10.125c.304-1.008.68-2.543 1.125-4.606l.21-.105h.457c1.079.773 2.133 2.719 3.165 5.836.843 1.617 1.933 3.387 3.27 5.308l.21.106c.797-.68 1.395-1.313 1.793-1.898 0-.141-.188-.258-.563-.352-.515.07-.855.14-1.02.21a1.067 1.067 0 0 1-.667-.562v-.21c0-.376.785-.598 2.355-.669v-.105c-1.171-1.008-2.109-2.555-2.812-4.64-1.266-2.626-2.766-5.919-4.5-9.88C8.508 6.165 7.43 4.324 7.102 4.043zm26.296.668c-3.586 3.234-5.414 4.851-5.484 4.851-3.234 4.079-4.852 6.434-4.852 7.067.75.281 1.125.656 1.125 1.125v.14c0 .094-.117.2-.351.317h-.211c-.234 0-.68-.223-1.336-.668-.375.422-.562.797-.562 1.125.96.281 1.441.773 1.441 1.477h.246c.867-.704 1.5-1.418 1.898-2.145.282-.07.915-.48 1.899-1.23h.246c.14.023.293.21.457.562-1.125 5.11-1.687 8.438-1.687 9.984-.211 0-.48 1.653-.809 4.957v.106c0 .094-.035.14-.105.14 0 1.032.867 1.547 2.601 1.547.445 0 .738-.632.879-1.898.633-1.945 1.09-2.918 1.371-2.918l-.14-.563c.984-3.75 1.476-6.457 1.476-8.12.61-3.305.914-5.286.914-5.942.211-2.25.434-3.645.668-4.184l.668-5.484-.352-.246zM7.875 8.19h.105c.61 0 .915.305.915.914 0 .118-.118.235-.352.352h-.105c-.399 0-.657-.152-.774-.457v-.563c.024-.164.094-.246.211-.246zM30.727 9c.304.094.527.281.668.563v.316c0 .117-.118.234-.352.351h-.457c-.117 0-.258-.152-.422-.457v-.457c0-.164.188-.27.563-.316zM7.418 10.441h.105c.54 0 .809.235.809.704 0 .187-.187.375-.562.562a1.231 1.231 0 0 1-.668-.562v-.352c0-.117.105-.234.316-.352zm21.27.246c.398 0 .703.223.914.668v.106c0 .398-.118.621-.352.668h-.457a1.231 1.231 0 0 1-.563-.668c.118-.516.27-.774.457-.774zM9.105 12.024h.563c.117 0 .27.153.457.457v.352c0 .094-.117.2-.352.316h-.105c-.398 0-.656-.152-.773-.457v-.421c.023-.165.093-.247.21-.247zm21.727.247c.445.14.668.433.668.878v.106c0 .14-.187.258-.563.351-.468-.14-.726-.328-.773-.562v-.457c.07-.211.293-.316.668-.316zM27 12.586c.445.164.668.469.668.914v.105c0 .118-.105.235-.316.352h-.247c-.398 0-.656-.152-.773-.457v-.563c.07-.234.293-.351.668-.351zm-20.04.809c.54.093.81.234.81.421v.457c0 .118-.118.235-.352.352h-.106c-.515 0-.773-.27-.773-.809v-.105c0-.188.14-.293.422-.316zm23.415 1.125c.305.093.527.28.668.562v.422c0 .164-.07.246-.211.246h-.246c-.399 0-.656-.152-.773-.457v-.457c0-.164.187-.27.562-.316zm-20.04.316h.458c.375.187.562.492.562.914l-.457.316c-.586 0-.878-.293-.878-.878 0-.118.105-.235.316-.352zm14.52 0h.563c.117 0 .305.187.562.562v.352c0 .117-.152.27-.457.457-.562 0-.89-.152-.984-.457v-.563c0-.117.106-.234.316-.351zM6.54 16.207h.211c.516 0 .773.258.773.773l-.421.352c-.422 0-.727-.187-.915-.562v-.247c0-.093.118-.199.352-.316zm23.273.316h.352c.117 0 .258.153.422.457v.352c0 .094-.14.2-.422.316-.539 0-.809-.257-.809-.773l.457-.352zm-17.894 1.02h.105c.118 0 .27.152.457.457v.457c0 .14-.07.211-.21.211h-.563c-.117 0-.27-.152-.457-.457v-.316c.07-.235.293-.352.668-.352zM5.73 18.879h.352c.445.047.668.164.668.351v.352c-.164.281-.352.422-.563.422-.445-.164-.667-.305-.667-.422v-.457c.023-.164.093-.246.21-.246zm23.31 0h.562c.093 0 .28.187.562.562v.247c0 .117-.152.269-.457.457-.422 0-.727-.188-.914-.563v-.457c.023-.164.105-.246.246-.246zm-8.685 1.687c.727 0 1.29.235 1.688.704h.246c.422-.211.715-.551.879-1.02h-1.23c-.516-.328-.774-.516-.774-.563-.281.047-.55.34-.809.88zm-6.96-.316c.468 0 .726.293.773.879 0 .117-.105.234-.316.351h-.247c-.398 0-.69-.187-.878-.562v-.352c.07-.21.293-.316.668-.316zm6.644.563c0 .093-.234.433-.703 1.019.562.352.867.645.914.879l-.21.562h.667c0-.164.152-.503.457-1.02-.68-.374-1.02-.855-1.02-1.44h-.105zm8.648.21h.563c.117 0 .27.153.457.457v.457c0 .094-.117.2-.352.317h-.105c-.61 0-.914-.293-.914-.879 0-.117.117-.234.352-.352zm-23.273.106h.563c.28.14.421.41.421.808l-.421.317c-.61 0-.915-.293-.915-.879l.352-.246zm9.106 1.266h.316c.375.187.562.48.562.878l-.316.247h-.352c-.117 0-.27-.153-.457-.457v-.458c.024-.14.106-.21.247-.21zm3.937.316a.83.83 0 0 1-.105.352c.328.14.656.48.984 1.019.352-.164.539-.316.562-.457-.562-.61-1.043-.914-1.441-.914zm9.879.246h.562c.118 0 .27.14.457.422v.351c0 .118-.152.235-.457.352-.515-.117-.773-.27-.773-.457v-.457c.023-.14.094-.211.21-.211zm-10.441 1.441c.07.446.175.668.316.668h.14c.094 0 .317-.222.669-.668h-1.125zm10.125.809h.21c.61.07.915.328.915.773-.141.352-.293.54-.457.563h-.211c-.54 0-.809-.258-.809-.773v-.247c0-.093.117-.199.352-.316zm-23.52.879h.457c.375.234.563.504.563.809-.118.28-.235.421-.352.421h-.106c-.609 0-.914-.293-.914-.878 0-.118.118-.235.352-.352zm23.273 1.793h.563c.305.14.457.41.457.808v.106c0 .117-.105.234-.316.352h-.563c-.375-.211-.562-.516-.562-.915l.421-.351zm-23.835.808h.21c.118 0 .27.153.457.458v.21c0 .118-.105.235-.316.352-.469 0-.703-.27-.703-.809l.352-.21zm23.414 1.583h.316c.375.187.562.48.562.878l-.457.352h-.316c-.117 0-.27-.152-.457-.457v-.457c0-.094.117-.2.352-.316zm-23.625.984c.445.047.668.164.668.351v.563c0 .117-.118.234-.352.352h-.316c-.118 0-.235-.118-.352-.352v-.563c0-.117.117-.234.352-.351zm23.168.562c.304.118.527.305.668.563v.457c0 .164-.07.246-.211.246h-.247c-.585-.094-.878-.328-.878-.703.117-.375.34-.563.668-.563zm19.793-17.05c2.718 0 5.238 1.265 7.558 3.796 1.195 1.876 1.793 3.645 1.793 5.31 0 2.53-1.348 5.19-4.043 7.98-3.328 2.695-5.812 4.078-7.453 4.148h-.105c-3.75 0-6.528-.89-8.333-2.672-1.265-1.008-2.203-2.402-2.812-4.183l-.773-4.817c0-2.766 1.242-5.133 3.726-7.101.14-.07.246-.106.316-.106.493.14.833.211 1.02.211 1.266-1.5 3.176-2.25 5.73-2.25h.106a.88.88 0 0 1 .457.105c.633-.21 1.57-.351 2.813-.421zM35.12 25.312c0 2.297 1.125 4.63 3.375 6.997 1.5 1.054 2.813 1.582 3.938 1.582l.105-.563a.83.83 0 0 0-.105-.351c.093-.446.316-.668.668-.668.656 0 1.03.527 1.125 1.582.07 0 .175.035.316.105 2.039-.61 3.727-1.207 5.062-1.793 3.54-2.812 5.31-5.625 5.31-8.437v-.246c0-3.188-1.993-5.625-5.977-7.313a14.236 14.236 0 0 0-2.918-.316c-4.454 0-7.336 1.16-8.649 3.48-1.078 1.477-1.758 3.2-2.039 5.168-.07.516-.14.773-.21.773zm9.211-8.753c.61.117.914.375.914.773-.117.375-.387.563-.809.563-.445-.165-.667-.422-.667-.774 0-.21.187-.398.562-.562zm2.918.316c.61.094.914.363.914.809-.234.492-.352.832-.352 1.02 2.25 2.25 3.376 4.417 3.376 6.503l-.458 2.145h.563c.422 0 .762.222 1.02.668v.351c0 .094-.106.2-.317.317h-.703c-.375-.141-.563-.551-.563-1.231-.82.656-1.23 1.254-1.23 1.793.68.61 1.02.95 1.02 1.02v.457c0 .046-.118.164-.352.351l-1.547-.457h-.246c-.445.047-.668.152-.668.317.117 0 .34.234.668.703v.562c0 .094-.152.2-.457.317-.563-.188-.89-.41-.984-.668V31.5l.316-.422h-.105c-1.149.281-1.97.422-2.461.422-2.086 0-4.008-1.195-5.766-3.586-.328-.75-.586-1.195-.773-1.336l-.774.106h-.562c-.375-.188-.563-.493-.563-.914 0-.446.293-.668.879-.668.492.234.832.351 1.02.351.234 0 .351-.527.351-1.582h-.351c-.68-.164-1.02-.351-1.02-.562v-.563c.07-.234.293-.351.668-.351.539.164.809.468.809.914h.105c2.555-3.305 4.875-4.957 6.961-4.957h.703c.14 0 .246-.446.316-1.336l.563-.141zm-5.168.14c.516.141.773.434.773.88V18c0 .21-.257.363-.773.457-.469-.14-.727-.328-.773-.562v-.457c.117-.282.375-.422.773-.422zm-2.602 1.126h.458c.117 0 .304.187.562.562v.317c0 .117-.105.234-.316.351h-.246c-.399 0-.657-.152-.774-.457v-.457c0-.094.106-.2.316-.316zm10.583.21h.105c.422 0 .727.188.914.563v.457c0 .094-.117.2-.352.317h-.316c-.539 0-.809-.258-.809-.774v-.105c0-.118.153-.27.458-.457zM39.48 25.56v.457c0 .632.457 1.523 1.372 2.672 1.406 1.125 2.449 1.687 3.128 1.687h.563c2.414-1.71 3.621-3.656 3.621-5.836 0-1.64-.785-3.07-2.355-4.289a6.726 6.726 0 0 1-1.582-.422c-1.993.985-3.493 2.438-4.5 4.36-.165.539-.247.996-.247 1.37zm-1.335-5.414h.21c.422 0 .727.187.915.562v.457c0 .117-.118.234-.352.352h-.563c-.445-.282-.667-.621-.667-1.02l.457-.351zm14.414 1.02h.21c.493 0 .833.304 1.02.913-.164.445-.469.668-.914.668h-.105c-.375-.187-.563-.492-.563-.914v-.316c0-.118.117-.235.352-.352zm-.352 3.585h.105c.586 0 .997.234 1.231.703v.317c0 .117-.14.27-.422.457h-.246c-.68-.094-1.02-.434-1.02-1.02v-.105c0-.118.118-.235.352-.352zm-15.293 2.953h.668c.094 0 .281.188.563.563v.879c.984 0 1.476.34 1.476 1.02v.105c0 .117-.117.234-.351.351h-.352c-.563 0-.89-.527-.984-1.582-.844 0-1.301-.34-1.371-1.02 0-.093.117-.199.351-.316zM40.5 31.29h.246c.399 0 .691.188.879.563v.457c-.07.21-.293.316-.668.316h-.21c-.118 0-.306-.187-.563-.563v-.421c0-.118.105-.235.316-.352zm4.605.563h.458c.539 0 .808.257.808.773v.246c0 .117-.152.27-.457.457h-.246c-.398 0-.691-.187-.879-.562v-.563c0-.117.106-.234.316-.351zm15.54-16.875c.28.234.773 1.851 1.476 4.851.61 2.461 1.055 3.692 1.336 3.692h.105l2.602-6.082c1.64-.399 2.461-.88 2.461-1.442.21-.445.516-.668.914-.668.89.281 1.383.422 1.477.422 1.804-.281 3-.422 3.586-.422.398 0 .656.14.773.422v.703c-.89.61-1.336 1.125-1.336 1.547-.094.54-2.039 3.539-5.836 9-2.86 3.61-4.7 6.422-5.52 8.438l-.562.351a9.61 9.61 0 0 0-1.23-.105c-.375.21-.645.316-.809.316-.492 0-.832-1.078-1.02-3.234-.89-4.079-1.71-7.008-2.46-8.79l.105-1.019-1.793-4.043v-.105c0-.47.375-.774 1.125-.914v-.106c-.234-.68-.352-1.125-.352-1.336v-.246c0-.68.422-1.02 1.266-1.02H58.5c.164 0 .879-.07 2.145-.21zm-3.692 1.793c1.64 4.64 2.836 8.39 3.586 11.25.211.539.703 2.343 1.477 5.414l.21.105L66.833 27c1.336-1.383 3.14-4.043 5.414-7.98 0-.141.34-.774 1.02-1.899v-.105a1.783 1.783 0 0 0-.914-.246h-2.25c-.68 0-1.395 1.125-2.145 3.375 0 .164.457.386 1.371.668l.106.562-.457.352h-.352c-.445-.211-.668-.657-.668-1.336-.375.234-1.09 1.394-2.144 3.48-.282.774-.422 1.3-.422 1.582l.773.668v.457c0 .14-.07.211-.21.211h-.247c-.14 0-.516-.07-1.125-.21l-.105.21v.352c.234 0 .492.222.773.668v.457c0 .093-.105.199-.316.316h-.106c-.562 0-1.242-.562-2.039-1.687-.89-.141-1.336-.516-1.336-1.125v-.106l.211-.352.211.141h.809c-.704-3.492-1.606-6.492-2.707-9-.329-.305-1.079-.457-2.25-.457-.516 0-.774.258-.774.774zm1.688.246h.21c.305.117.458.375.458.773v.106c0 .164-.082.246-.246.246h-.106c-.516 0-.773-.27-.773-.809l.457-.316zm12.48.422h.317c.117 0 .269.152.457.457v.351c0 .14-.07.211-.211.211h-.457c-.118 0-.27-.152-.457-.457v-.21c0-.118.117-.235.351-.352zm-.808 1.582c.328.117.562.304.703.562v.352c0 .093-.118.199-.352.316h-.21c-.423 0-.692-.14-.81-.422v-.457c0-.164.223-.281.668-.351zm-10.547.105c.468.21.726.398.773.563v.246c0 .093-.117.199-.352.316h-.562c-.117 0-.258-.14-.422-.422v-.351c0-.165.188-.282.563-.352zm.562 2.145h.106c.398 0 .691.187.879.562v.352c0 .093-.106.199-.317.316h-.562c-.118 0-.27-.14-.457-.422v-.457c0-.117.117-.234.351-.351zm7.172 1.02h.457c.281.14.469.362.563.667 0 .445-.258.668-.774.668h-.105c-.118 0-.305-.187-.563-.563 0-.398.14-.656.422-.773zm-6.293 1.335c.492.21.762.398.809.563v.457c0 .117-.118.234-.352.351h-.105c-.61 0-.914-.305-.914-.914.046-.14.234-.293.562-.457zm5.168.914h.457c.117 0 .27.152.457.457 0 .375-.117.598-.352.668h-.21c-.516 0-.774-.258-.774-.773l.422-.352zm-4.605 3.023c.445.047.667.165.667.352v.352c0 .14-.07.21-.21.21h-.352c-.094 0-.2-.117-.316-.351v-.316c.023-.164.093-.247.21-.247zm1.02 1.372c.608.046.913.34.913.878 0 .118-.152.27-.457.458-.61-.118-.914-.41-.914-.88 0-.117.152-.269.457-.456zM78.081 4.71c2.25.375 3.375 1.125 3.375 2.25.211.492.316.95.316 1.371-.703 1.805-1.71 2.707-3.023 2.707-.305.211-.61.316-.914.316h-1.02c-1.265 0-2.156-.855-2.671-2.566 0-.375-.047-.832-.141-1.371 0-1.195.797-1.793 2.39-1.793.47-.61 1.032-.914 1.688-.914zM76.711 7.77c.187 1.43.785 2.144 1.793 2.144 1.5-.328 2.25-1.043 2.25-2.144-.563-1.36-1.348-2.04-2.356-2.04-.726 0-1.289.68-1.687 2.04zm2.602-.563h.105c.117 0 .27.152.457.457v.563c0 .093-.457.351-1.371.773h-.106c-.75 0-1.125-.258-1.125-.773 0-.446.68-.786 2.04-1.02zm-3.727 6.645c1.266.07 2.238.105 2.918.105h1.266c.117 0 .257.152.421.457-.515 2.063-.773 4.5-.773 7.313-.234 1.523-.492 4.183-.773 7.98-.774 3.445-1.23 5.168-1.372 5.168h-.878c0 .563-.188.937-.563 1.125h-.352c-.96-.234-1.593-.352-1.898-.352-.445 0-1.242.047-2.39.141a1.604 1.604 0 0 1-.774-.703v-.211c.328-.563.668-2.062 1.02-4.5 1.125-6.773 1.687-11.766 1.687-14.977 0-.398.562-.773 1.688-1.125 0-.117.257-.257.773-.421zm-2.356 18v.562c0 .399.188.691.563.879h2.602c.468 0 1.03-2.59 1.687-7.77.375-4.03.633-7.324.773-9.878 0-.399-.375-.622-1.125-.668h-1.125c-.562 0-.902.597-1.02 1.793-.585 1.406-.995 3.843-1.23 7.312 0 1.57-.375 4.16-1.125 7.77zm3.586-16.102c.329.094.563.281.704.563v.457c0 .093-.118.199-.352.316h-.457c-.094 0-.281-.188-.563-.563v-.316c0-.164.223-.316.668-.457zm-.316 2.355c.68.118 1.02.457 1.02 1.02l-.457.352h-.458c-.093 0-.28-.188-.562-.563v-.457c0-.117.152-.234.457-.352zm-.246 2.707c.539.141.808.446.808.915v.316c0 .117-.117.234-.351.352H76.5c-.68 0-1.02-.305-1.02-.915.188-.445.446-.668.774-.668zm-.563 2.602h.141c.516 0 .773.258.773.773v.211c0 .118-.117.235-.351.352h-.106c-.398 0-.691-.187-.878-.563v-.351c0-.117.14-.258.421-.422zm-.316 2.461h.21c.54 0 .81.223.81.668-.165.352-.317.539-.457.562h-.458c-.117 0-.27-.152-.457-.457v-.421c0-.118.118-.235.352-.352zm-.105 2.145h.21c.329.187.551.445.668.773-.117.305-.222.457-.316.457h-.562c-.118 0-.27-.152-.457-.457v-.316c0-.118.152-.27.457-.457zm-.247 2.707h.563c.117 0 .305.222.562.668-.164.445-.316.668-.457.668h-.21c-.61-.047-.915-.305-.915-.774.164-.352.317-.539.457-.562zm13.114-18.211c1.054.515 3.34.89 6.855 1.125 3.985 2.203 5.977 5.238 5.977 9.105 0 1.125-.375 2.438-1.125 3.938h-.106c-.937-.07-1.5-.106-1.687-.106-.305.07-.457.293-.457.668v.317c0 .187.07.527.21 1.019-.492 3.54-.937 5.309-1.335 5.309-.328 0-1.149.632-2.461 1.898-.328.14-.938.211-1.828.211h-.106c-4.5 0-8.168-1.723-11.004-5.168-1.36-2.695-2.039-4.605-2.039-5.73 0-4.43 1.242-7.688 3.727-9.774 1.547-1.875 3.34-2.812 5.379-2.812zm-6.75 14.062c0 2.367 1.687 4.535 5.062 6.504 2.32.61 4.348.914 6.082.914 1.125 0 2.285-.492 3.48-1.476.235-.446.352-1.114.352-2.004l-.351-.246c-.586.187-.926.41-1.02.668l.352 1.125c0 .117-.117.234-.352.351h-.422c-.258 0-.492-.375-.703-1.125h-.21c-.68.14-1.173.211-1.477.211h-.985c-3.07 0-5.215-1.312-6.433-3.938l-.106-1.125v-.562c0-.164.492-.422 1.477-.773.89.234 1.71.351 2.46.351h.352c1.008 0 1.828-.082 2.461-.246v-.21c-.14-.68-.328-1.02-.562-1.02-.375.515-.598.773-.668.773h-.246c-.305 0-.715-.258-1.23-.773-.4.515-.74.773-1.02.773-.446-.047-.668-.117-.668-.21l-.563.105h-.457c-.914-.961-1.547-1.442-1.898-1.442-.516 0-.774-.27-.774-.808 0-.094.106-.2.317-.317h.105c.188 0 .528.07 1.02.211.234-.375.386-.902.457-1.582h-.106c-.258.164-.48.246-.668.246-.304 0-.539-.152-.703-.457v-.457c0-.117.117-.234.352-.352h.457c.117 0 .375.27.773.81.117 0 .715-.645 1.793-1.934 1.078-.961 2.578-1.442 4.5-1.442h.352c2.508 0 4.195 1.348 5.062 4.043.117 1.57.305 2.356.563 2.356h.21c0-.399.188-.692.563-.88h.246c.117 0 .27.141.457.422v.458c-.375.75-.68 1.125-.914 1.125-.492-.141-.832-.211-1.02-.211-.28 0-.62.187-1.019.562-.726-.234-1.137-.351-1.23-.351-.07 0-.293.152-.668.457-.375 0-.82-.34-1.336-1.02l-.14.246v.563c0 .445 1.054.668 3.163.668 2.39 0 3.586-.305 3.586-.914.235-1.079.352-1.864.352-2.356 0-3.375-1.723-5.883-5.168-7.523-.82-.235-1.418-.352-1.793-.352h-1.828c-1.594 0-3.54.715-5.836 2.145-1.407.96-2.567 3.28-3.48 6.96-.235 1.336-.352 2.356-.352 3.06zm11.25-11.812c.539.164.808.421.808.773h.211c.282-.234.504-.351.668-.351.54.164.809.468.809.914 0 .117-.117.234-.352.351-.375 0-.867-.187-1.476-.562-.235.14-.457.21-.668.21l-.774-.21c-.328.28-.633.421-.914.421-.586 0-.96-.187-1.125-.562v-.316c.164-.305.387-.457.668-.457l1.125.105c.422-.21.762-.316 1.02-.316zm-4.043.984c.469.164.726.352.773.563v.246c0 .117-.14.27-.422.457-.422 0-.726-.188-.914-.563v-.246c.024-.14.211-.293.563-.457zm-2.356.809h.317c.61 0 .914.293.914.878-.282.235-.504.352-.668.352-.68-.14-1.02-.445-1.02-.914l.457-.316zm9.774.316h.457c.117 0 .27.152.457.457v.246c0 .094-.117.2-.352.317h-.562c-.211-.07-.317-.293-.317-.668 0-.118.106-.235.317-.352zm-10.582.914c.117 0 .27.152.457.457v.317c0 .164-.07.246-.211.246h-.563c-.234-.07-.351-.293-.351-.668.07-.235.293-.352.668-.352zm.808 4.606c.047.304.34.457.88.457h4.956c1.805 0 2.707-.153 2.707-.457v-.457c0-2.11-1.5-3.305-4.5-3.586-1.476 0-2.789 1.16-3.937 3.48l-.106.563zm11.25-3.832h.106c.515 0 .773.269.773.808 0 .211-.14.317-.422.317-.539-.094-.808-.235-.808-.422v-.352c0-.117.117-.234.351-.352zm.668 2.144h.457c.094 0 .246.188.457.563v.351c0 .094-.117.2-.351.317h-.106c-.539 0-.808-.258-.808-.774v-.105c0-.118.117-.235.351-.352zm-15.082 3.059c.422 0 .727.187.914.562v.317c0 .117-.117.234-.351.351-.399 0-.692-.187-.88-.562v-.352c0-.094.106-.2.317-.316zm-.316 1.793h.105c.399 0 .692.187.88.562v.457c0 .094-.106.2-.317.317h-.563c-.117 0-.27-.188-.457-.563v-.457c0-.094.117-.2.352-.316zm.316 1.687h.106c.422 0 .726.188.914.563v.457c0 .093-.117.199-.352.316h-.422c-.117 0-.304-.187-.562-.562v-.457c0-.094.105-.2.316-.317zm3.27.457l-.211.317c.984 1.664 2.777 2.496 5.379 2.496 2.672-.282 4.254-1.078 4.746-2.391v-.105h-.14c-.563 0-1.079.035-1.548.105-1.898-.281-4.64-.422-8.226-.422zm-2.25 1.442c.445 0 .668.27.668.808v.106c0 .093-.106.199-.317.316h-.457c-.21 0-.363-.293-.457-.879l.563-.351zm1.898 1.582c.352.14.54.293.563.457v.457c0 .14-.07.21-.211.21h-.563c-.117 0-.27-.152-.457-.456v-.317c.07-.234.293-.351.668-.351zm1.582.668h.563c.117 0 .304.187.562.562v.352c-.07.21-.293.316-.668.316a1.067 1.067 0 0 1-.668-.563v-.421c.024-.164.094-.246.211-.246zm4.957.351c.75.094 1.125.246 1.125.457v.422c0 .117-.152.27-.457.457h-.105c-.399 0-.703-.187-.914-.562v-.458c0-.093.117-.199.351-.316zm-1.687.106c.445.164.668.468.668.914l-.457.316h-.211c-.399 0-.703-.187-.914-.562v-.106c.21-.375.515-.562.914-.562zm47.355-29.707c.281.14.469.363.563.667a426.193 426.193 0 0 0-1.442 9.106c-.304 3.14-.726 6.14-1.265 9 0 2.086-.668 4.969-2.004 8.648l-.809 3.832c0 1.29-.375 1.934-1.125 1.934-.281.375-.61.563-.984.563h-.246c-1.008-.235-1.828-.352-2.461-.352h-1.793c-.54 0-.914-.375-1.125-1.125.586-2.203 1.031-5.508 1.336-9.914.515-1.313.855-2.39 1.02-3.234l-.247-.141h-.105c-1.547 1.476-2.52 2.273-2.918 2.39 0 .376-1.09 1.606-3.27 3.692-.937 1.5-1.535 2.25-1.793 2.25-.656 0-1.066-.48-1.23-1.441l-.246-.141c-.047 0-.563.234-1.547.703-.563 0-1.5-1.875-2.813-5.625-.562-1.336-.984-2.086-1.265-2.25-.563 0-1.418 4.687-2.567 14.063a7.785 7.785 0 0 0-1.582 1.23h-2.039c-1.64 0-2.46-.305-2.46-.914.374-1.43.82-4.02 1.335-7.77 1.125-5.625 1.688-9 1.688-10.125.468-2.039.808-5.144 1.02-9.316.21-2.86.398-4.477.562-4.852h.457c.14 0 .48.118 1.02.352.187-.68.374-1.02.562-1.02h.316c.516.258 1.828 2.438 3.938 6.54 2.742 6.093 4.582 10.03 5.52 11.812l.245.105h.106c.14-.046 1.418-1.699 3.832-4.957 3.234-4.148 5.52-7.183 6.855-9.105.07-.305.739-.867 2.004-1.688.75-1.289 1.242-1.933 1.477-1.933h.105c.281.023.586.398.914 1.125h.317c.164 0 .691-.668 1.582-2.004l.562-.105zm-27.316 1.898c-1.125 6.187-1.688 10.312-1.688 12.375l-1.265 7.418c.468-.305.773-.457.914-.457.304.117.527.305.668.562v.457c0 .165-.07.247-.211.247h-.246c-.258 0-.633-.188-1.125-.563h-.106c-.234 0-.61 1.23-1.125 3.691l-.668 5.73c0 .259.75.446 2.25.563.586 0 .961-.937 1.125-2.812l1.688-10.125c.304-1.008.68-2.543 1.125-4.606l.21-.105h.458c1.078.773 2.133 2.719 3.164 5.836.844 1.617 1.933 3.387 3.27 5.308l.21.106c.797-.68 1.395-1.313 1.793-1.898 0-.141-.187-.258-.562-.352-.516.07-.856.14-1.02.21a1.067 1.067 0 0 1-.668-.562v-.21c0-.376.785-.598 2.356-.669v-.105c-1.172-1.008-2.11-2.555-2.813-4.64-1.265-2.626-2.765-5.919-4.5-9.88-1.828-3.398-2.906-5.238-3.234-5.519zm26.297.668c-3.586 3.234-5.414 4.851-5.485 4.851-3.234 4.079-4.851 6.434-4.851 7.067.75.281 1.125.656 1.125 1.125v.14c0 .094-.117.2-.352.317h-.21c-.235 0-.68-.223-1.337-.668-.375.422-.562.797-.562 1.125.96.281 1.441.773 1.441 1.477h.246c.868-.704 1.5-1.418 1.899-2.145.281-.07.914-.48 1.898-1.23h.246c.14.023.293.21.457.562-1.125 5.11-1.687 8.438-1.687 9.984-.211 0-.48 1.653-.809 4.957v.106c0 .094-.035.14-.105.14 0 1.032.867 1.547 2.601 1.547.446 0 .739-.632.88-1.898.632-1.945 1.09-2.918 1.37-2.918l-.14-.563c.984-3.75 1.476-6.457 1.476-8.12.61-3.305.914-5.286.914-5.942.211-2.25.434-3.645.668-4.184l.668-5.484-.351-.246zm-25.524 3.48h.106c.61 0 .914.305.914.914 0 .118-.117.235-.352.352h-.105c-.399 0-.656-.152-.774-.457v-.563c.024-.164.094-.246.211-.246zM134.508 9c.305.094.527.281.668.563v.316c0 .117-.117.234-.352.351h-.457c-.117 0-.258-.152-.422-.457v-.457c0-.164.188-.27.563-.316zm-23.309 1.441h.106c.539 0 .808.235.808.704 0 .187-.187.375-.562.562a1.231 1.231 0 0 1-.668-.562v-.352c0-.117.105-.234.316-.352zm21.27.246c.398 0 .703.223.914.668v.106c0 .398-.117.621-.352.668h-.457a1.231 1.231 0 0 1-.562-.668c.117-.516.27-.774.457-.774zm-19.582 1.336h.562c.117 0 .27.153.457.457v.352c0 .094-.117.2-.351.316h-.106c-.398 0-.656-.152-.773-.457v-.421c.023-.165.094-.247.21-.247zm21.726.247c.446.14.668.433.668.878v.106c0 .14-.187.258-.562.351-.469-.14-.727-.328-.774-.562v-.457c.07-.211.293-.316.668-.316zm-3.832.316c.446.164.668.469.668.914v.105c0 .118-.105.235-.316.352h-.246c-.399 0-.657-.152-.774-.457v-.563c.07-.234.293-.351.668-.351zm-20.039.809c.54.093.809.234.809.421v.457c0 .118-.117.235-.352.352h-.105c-.516 0-.774-.27-.774-.809v-.105c0-.188.14-.293.422-.316zm23.414 1.125c.305.093.528.28.668.562v.422c0 .164-.07.246-.21.246h-.247c-.398 0-.656-.152-.773-.457v-.457c0-.164.187-.27.562-.316zm-20.039.316h.457c.375.187.563.492.563.914l-.457.316c-.586 0-.88-.293-.88-.878 0-.118.106-.235.317-.352zm14.52 0h.562c.117 0 .305.187.563.562v.352c0 .117-.153.27-.457.457-.563 0-.89-.152-.985-.457v-.563c0-.117.106-.234.317-.351zm-18.317 1.371h.211c.516 0 .774.258.774.773l-.422.352c-.422 0-.727-.187-.914-.562v-.247c0-.093.117-.199.351-.316zm23.274.316h.351c.118 0 .258.153.422.457v.352c0 .094-.14.2-.422.316-.539 0-.808-.257-.808-.773l.457-.352zm-17.895 1.02h.106c.117 0 .27.152.457.457v.457c0 .14-.07.211-.211.211h-.563c-.117 0-.27-.152-.457-.457v-.316c.07-.235.293-.352.668-.352zm-6.187 1.336h.351c.446.047.668.164.668.351v.352c-.164.281-.351.422-.562.422-.446-.164-.668-.305-.668-.422v-.457c.023-.164.094-.246.21-.246zm23.308 0h.563c.094 0 .281.187.562.562v.247c0 .117-.152.269-.457.457-.422 0-.726-.188-.914-.563v-.457c.024-.164.106-.246.246-.246zm-8.683 1.687c.726 0 1.289.235 1.687.704h.246c.422-.211.715-.551.88-1.02h-1.231c-.516-.328-.774-.516-.774-.563-.28.047-.55.34-.808.88zm-6.961-.316c.469 0 .726.293.773.879 0 .117-.105.234-.316.351h-.246c-.399 0-.692-.187-.88-.562v-.352c.071-.21.294-.316.669-.316zm6.644.563c0 .093-.234.433-.703 1.019.563.352.867.645.914.879l-.21.562h.667c0-.164.153-.503.457-1.02-.68-.374-1.02-.855-1.02-1.44h-.105zm8.649.21h.562c.117 0 .27.153.457.457v.457c0 .094-.117.2-.351.317h-.106c-.61 0-.914-.293-.914-.879 0-.117.117-.234.352-.352zm-23.274.106h.563c.281.14.422.41.422.808l-.422.317c-.61 0-.914-.293-.914-.879l.351-.246zm9.106 1.266h.316c.375.187.563.48.563.878l-.317.247h-.351c-.117 0-.27-.153-.457-.457v-.458c.023-.14.105-.21.246-.21zm3.937.316a.83.83 0 0 1-.105.352c.328.14.656.48.984 1.019.352-.164.54-.316.563-.457-.563-.61-1.043-.914-1.442-.914zm9.88.246h.562c.117 0 .27.14.457.422v.351c0 .118-.153.235-.457.352-.516-.117-.774-.27-.774-.457v-.457c.024-.14.094-.211.211-.211zm-10.442 1.441c.07.446.176.668.316.668h.14c.095 0 .317-.222.669-.668h-1.125zm10.125.809h.21c.61.07.915.328.915.773-.14.352-.293.54-.457.563h-.211c-.54 0-.809-.258-.809-.773v-.247c0-.093.117-.199.352-.316zm-23.52.879h.457c.375.234.563.504.563.809-.117.28-.235.421-.352.421h-.105c-.61 0-.914-.293-.914-.878 0-.118.117-.235.351-.352zm23.274 1.793h.562c.305.14.457.41.457.808v.106c0 .117-.105.234-.316.352h-.563c-.375-.211-.562-.516-.562-.915l.422-.351zm-23.836.808h.21c.118 0 .27.153.458.458v.21c0 .118-.106.235-.317.352-.468 0-.703-.27-.703-.809l.352-.21zm23.414 1.583h.316c.375.187.563.48.563.878l-.457.352h-.317c-.117 0-.27-.152-.457-.457v-.457c0-.094.117-.2.352-.316zm-23.625.984c.445.047.668.164.668.351v.563c0 .117-.117.234-.352.352h-.316c-.117 0-.235-.118-.352-.352v-.563c0-.117.117-.234.352-.351zm23.168.562c.304.118.527.305.668.563v.457c0 .164-.07.246-.211.246h-.246c-.586-.094-.88-.328-.88-.703.118-.375.34-.563.669-.563zm17.437-16.91c4.805.305 7.207.715 7.207 1.23.68.516 1.09 1.009 1.23 1.477-.28 10.852-.808 16.7-1.581 17.543 0 .89-.293 1.336-.88 1.336-.374.235-.679.352-.913.352h-.914c-.07 0-.106-.035-.106-.106-.844.211-1.406.317-1.687.317-.211 0-.434-.223-.668-.668 0-.117.117-.528.351-1.23l-.351-.212h-.352c-.914.305-2.636.598-5.168.88-2.086 0-4.148-.856-6.187-2.567-1.196-1.43-1.793-2.93-1.793-4.5 0-1.031.715-2.274 2.144-3.727.422-.304 1.242-.527 2.461-.668 1.524-1.289 4.149-1.933 7.875-1.933.211 0 .996.152 2.356.457l.246-.317v-.246c0-.89-.563-1.336-1.688-1.336h-.914c-1.781 0-4.031.528-6.75 1.582l-.668.106c-.445 0-.89-.41-1.336-1.23.07-.75.106-1.313.106-1.688l-.246-1.477c0-.984.457-1.476 1.37-1.476.352-.516.575-.774.669-.774l1.125.106c2.672-.82 4.36-1.23 5.062-1.23zm-5.625 4.395c0 .75.305 1.125.914 1.125l4.5-.914h1.793c1.102 0 2.297.41 3.586 1.23l.668-.562h.352c.117 0 .27.152.457.457v.351c0 .211-.153.317-.457.317-.094 0-.434-.106-1.02-.317 0 .89.375 1.336 1.125 1.336l.246.352v.21c0 .235-.457.387-1.37.458 0 1.078-.376 1.71-1.126 1.898-.422.235-.68.352-.773.352v.105c.61 0 1.054.375 1.336 1.125l-.106.457c.07 1.594.106 2.531.106 2.813-.14.351-.293.539-.457.562-.399-.07-.692-.105-.88-.105l-.105.21.106.81-.352.21h-.21c-.446-.515-.821-.773-1.126-.773-1.336.515-2.543.773-3.62.773h-.985c-1.195 0-2.063-.715-2.602-2.144v-.563c0-1.336 1.16-2.496 3.48-3.48a6.54 6.54 0 0 1 1.583-.211h3.164v-.703c0-.164.187-.27.562-.317-.539-.68-1.476-1.02-2.812-1.02-1.5 0-2.25.305-2.25.915 0 .375-.117.597-.352.668-.375 0-.75-.34-1.125-1.02a.83.83 0 0 0-.351-.105c-.14.187-.211.34-.211.457.14.234.21.457.21.668v.105c0 .164-.187.281-.562.352-.07 0-.398-.235-.984-.703h-.14c-2.087.937-3.13 2.215-3.13 3.832v.668c0 1.71 1.043 3.293 3.13 4.746.773.375 1.487.562 2.144.562h.457c1.5 0 3.258-.527 5.273-1.582.024-.094.211-.246.563-.457h.562c.117 0 .27.153.457.457-.14 1.078-.21 1.64-.21 1.688 0 .375.152.562.456.562.235-.14.457-.21.668-.21.118 0 .41.07.88.21.163-.234.245-.422.245-.562-.75-.352-1.125-.692-1.125-1.02l.457-.316c.399.07.692.105.88.105.163-.258.245-.48.245-.668v-.457c-.304.14-.574.211-.808.211-.446-.14-.668-.433-.668-.879.023-.164.094-.246.21-.246h.563c.375.211.563.434.563.668h.246c.281-1.805.574-6.152.879-13.043 0-1.875-1.23-2.812-3.692-2.812-.984-.211-1.664-.317-2.039-.317h-1.582c-3.89.797-5.836 1.465-5.836 2.004v1.477zm8.543-2.145c.399 0 .668.153.809.457-.117.375-.387.563-.809.563l-.21-.352v-.457c.023-.14.093-.21.21-.21zm-1.898.211h.316c.117 0 .27.153.457.457v.106c0 .117-.105.234-.316.351-.469-.07-.703-.187-.703-.351v-.317c.023-.164.105-.246.246-.246zm3.937 0h.211l1.582 1.371v.317c0 .234-.152.351-.457.351-1.078-.68-1.64-1.09-1.687-1.23v-.457c0-.117.117-.235.351-.352zm-5.976.14h.246c.117 0 .258.141.422.423v.246c0 .14-.07.21-.211.21h-.457c-.14 0-.211-.07-.211-.21v-.457c.023-.14.094-.211.21-.211zm-1.793.212h.351c.282.117.422.375.422.773l-.316.246c-.399 0-.621-.117-.668-.351v-.457c.023-.14.094-.211.21-.211zm-1.793.562h.457c.094 0 .2.117.316.352v.21c0 .118-.105.235-.316.352h-.352c-.117 0-.234-.117-.351-.351v-.352c.023-.14.105-.21.246-.21zm4.148 5.73h.246c.118 0 .258.153.422.458v.351c0 .14-.07.211-.21.211h-.458c-.094 0-.199-.117-.316-.351v-.317c0-.117.105-.234.316-.351zm1.793 0c.328.118.563.305.703.563v.246c0 .094-.117.2-.351.317-.399 0-.703-.188-.914-.563v-.105c.047-.164.234-.317.562-.457zm5.063 0c.234.282.351.551.351.81l-.351.21h-.211c-.117 0-.27-.152-.457-.457v-.21c.07-.235.293-.352.668-.352zm-12.375 1.372c.539 0 .808.258.808.773l-.351.211h-.317c-.117 0-.234-.105-.351-.316v-.457c.023-.14.094-.211.21-.211zm1.582 3.691v.352c0 .96.68 1.441 2.039 1.441 1.242 0 2.625-.41 4.148-1.23v-.211c0-.422.117-1.172.352-2.25 0-.54-.645-.809-1.934-.809h-.668c-1.875 0-3.187.903-3.937 2.707zm10.37-2.707h.317c.305.14.457.41.457.809l-.21.105h-.458c-.117 0-.234-.117-.351-.351v-.317c.023-.164.105-.246.246-.246zm-13.394.457h.457c.211.07.317.293.317.668l-.317.246h-.246c-.117 0-.27-.152-.457-.457v-.21c.024-.165.106-.247.246-.247zm12.938 1.371h.457c.094 0 .2.106.316.317v.351c0 .14-.07.211-.21.211h-.458c-.117 0-.234-.105-.351-.316v-.352c.023-.14.105-.21.246-.21zm-12.938.422h.317c.234.094.351.328.351.703 0 .14-.07.211-.21.211h-.352c-.117 0-.27-.152-.457-.457v-.105c0-.117.117-.235.351-.352zm12.832.914h.317c.117 0 .304.188.562.563v.21c-.023.165-.21.317-.562.458-.328-.14-.516-.293-.563-.457v-.563c.024-.14.106-.21.246-.21zm-12.62.914h.456c.117 0 .235.106.352.317v.351c0 .14-.082.211-.246.211h-.457c-.094 0-.2-.105-.317-.316v-.352c.024-.14.094-.21.211-.21zm8.226 1.23h.316c.375.212.563.47.563.774l-.317.246h-.457c-.117 0-.234-.117-.351-.351v-.457c.023-.14.105-.211.246-.211zm-6.645.212h.457c.118 0 .27.152.457.457v.21c0 .118-.152.27-.457.458-.539-.094-.808-.246-.808-.457v-.317c0-.117.117-.234.351-.351zm4.711.457h.352c.117 0 .27.152.457.457v.21c0 .165-.082.247-.246.247h-.106c-.398 0-.656-.153-.773-.457v-.106c0-.117.105-.234.316-.351zm-2.566.105h.316c.375.188.563.492.563.914 0 .117-.14.223-.422.317-.54-.094-.809-.235-.809-.422V32.8c0-.117.117-.235.352-.352zM176.484.492h.563c1.148 0 2.496.258 4.043.774l.457.703c0 .773-.715 5.789-2.145 15.047l-.562 4.851c-.07.164-.328 1.594-.774 4.29.07.75.106 1.312.106 1.687l-1.477 6.398c.07.14.106.293.106.457 0 .446-.598.703-1.793.774 0 .82-.938 1.23-2.813 1.23h-.316c-.422 0-.914-.375-1.477-1.125-.14 0-.21-.035-.21-.105-.68.164-1.583.246-2.708.246h-1.23c-4.664 0-7.594-1.278-8.79-3.832-1.124-2.133-1.687-4.5-1.687-7.102 0-2.18.715-4.394 2.145-6.644 1.875-1.336 3.187-2.004 3.937-2.004h.106l.668.105c2.015-1.125 4.113-1.687 6.293-1.687 2.086.14 3.363.21 3.832.21.14-.187.293-.597.457-1.23l-.106-.21v-.106l1.125-8.79V2.743c0-.187.633-.375 1.899-.562 0-.07.035-.188.105-.352-.14-.258-.21-.55-.21-.879 0-.117.152-.27.456-.457zm-1.02 13.29c0 1.945.306 2.917.915 2.917.89 0 1.336.258 1.336.774l-.457.351a20.23 20.23 0 0 0-1.793-.105l-.211.105c-.375 0-.938-.457-1.688-1.37-.539-.587-2.308-.88-5.308-.88-1.219 0-2.602.41-4.149 1.23v.352l.457.668v.317c0 .117-.117.234-.351.351h-.352c-.14 0-.586-.222-1.336-.668l-.105.211v.106c.305.398.457.738.457 1.02 0 .234-.305.386-.914.456-.399-.117-.703-.27-.914-.457-.422 0-1.02.832-1.793 2.496-.446 1.5-.668 2.578-.668 3.235v1.828c0 2.273.867 4.289 2.601 6.047 1.36.914 2.485 1.37 3.375 1.37h2.918c.141 0 .211-.081.211-.245v-.106c-.422-.68-.68-1.02-.773-1.02h-.457c0 .235-.188.47-.563.704h-.457c-.586 0-.879-.457-.879-1.371-2.18-1.5-3.27-3.223-3.27-5.168v-1.336c0-1.969 1.126-3.926 3.376-5.871.937-.68 2.285-1.02 4.043-1.02h.21c1.407 0 3.141.61 5.204 1.828.75 0 1.125.446 1.125 1.336 0 .82.258 1.23.773 1.23.68 0 1.02.27 1.02.81v.105c0 .093-.117.199-.352.316h-.21c-.61 0-.915-.375-.915-1.125-.21 0-.398 1.02-.562 3.059 0 .422.41.68 1.23.773.235.258.352.445.352.563 0 .164-.035.574-.106 1.23.07.14.106.293.106.457l-.352.246h-.422c-.117 0-.27-.152-.457-.457v-.105l.106-.809-.352-.21c-1.383 1.218-2.086 1.886-2.11 2.003v.246c.235 0 .458.188.669.563v.773c.21 1.57.363 2.356.457 2.356.375.234.75.351 1.125.351.445-.187.668-.527.668-1.02v-.667c-.281.234-.55.351-.809.351h-.21c-.118 0-.235-.117-.352-.351v-.457c0-.094.117-.2.351-.317.282 0 .621.188 1.02.563.21 0 .621-1.653 1.23-4.957.82-5.086 1.5-9.856 2.04-14.309.07-1.266.48-4.453 1.23-9.562 0-1.336-.832-2.004-2.496-2.004-.586 0-.88.785-.88 2.355-.35 0-.808 2.367-1.37 7.102-.117 0-.188.937-.211 2.812zm2.462-10.477h.562c.117 0 .235.117.352.351v.211c0 .117-.117.235-.352.352h-.422c-.234-.094-.351-.328-.351-.703.023-.141.094-.211.21-.211zm-.211 2.25h.457c.117 0 .27.152.457.457v.562c-.164.305-.399.457-.703.457a1.231 1.231 0 0 1-.668-.562v-.457c0-.117.152-.27.457-.457zm-.211 2.355h.422c.117 0 .304.188.562.563v.457c0 .117-.105.234-.316.351h-.352c-.515 0-.773-.27-.773-.808v-.106c0-.117.152-.27.457-.457zm-.563 2.145h.317c.445.047.668.164.668.351v.422c0 .117-.106.234-.317.352h-.562c-.305-.118-.457-.375-.457-.774 0-.117.117-.234.351-.351zm.106 2.144c.445 0 .668.258.668.774v.246c-.07.21-.293.316-.668.316h-.246c-.094 0-.281-.187-.563-.562v-.317c.14-.304.41-.457.809-.457zm-.914 2.145h.246c.586 0 .879.328.879.984-.235.164-.422.246-.563.246-.586-.07-.879-.375-.879-.914 0-.094.106-.2.317-.316zm-7.98 1.898h.105c.398 0 .668.153.808.457v.457c0 .094-.117.2-.351.317h-.457c-.094 0-.281-.188-.563-.563v-.21c0-.118.153-.27.457-.458zm2.25.211c.35 0 .574.34.667 1.02l-.457.351h-.105c-.516 0-.774-.27-.774-.808v-.211c.07-.235.293-.352.668-.352zm-4.606.14c.398 0 .691.188.879.563v.317c0 .117-.106.234-.317.351h-.246c-.586 0-.879-.304-.879-.914l.563-.316zm6.855.563c.61 0 .914.48.914 1.442l.563-.317h.422c.117 0 .27.14.457.422v.457c0 .164-.07.246-.211.246h-.106c-1.804-.68-2.707-1.172-2.707-1.476v-.457c.07-.211.293-.317.668-.317zm3.938 1.688c.61.047.914.34.914.879 0 .117-.117.234-.352.351h-.105c-.61 0-.914-.304-.914-.914 0-.187.152-.293.457-.316zm-14.168 7.172v1.02c0 2.32 1.348 3.82 4.043 4.5h.457c.984 0 2.402-.528 4.254-1.583.562-.469.937-.879 1.125-1.23l-.106-.774c.375-2.344.68-4.558.914-6.644-1.43-1.125-2.964-1.688-4.605-1.688-2.86 0-4.852 1.758-5.977 5.274-.07.398-.105.773-.105 1.125zm-1.793-5.485c.398 0 .691.188.879.563v.422c0 .117-.106.234-.317.351h-.14c-.399 0-.692-.187-.88-.562v-.352c0-.117.153-.258.458-.422zm15.61.668h.14c.586 0 .879.293.879.88l-.457.35h-.106c-.515 0-.773-.257-.773-.773v-.14c0-.094.105-.2.316-.317zm-16.63 1.582h.457c.446.188.668.48.668.88v.105c-.07.234-.293.351-.668.351-.539 0-.808-.375-.808-1.125l.351-.21zm16.313 2.25c.398 0 .691.188.879.563v.316c-.07.235-.293.352-.668.352-.446-.164-.668-.469-.668-.914 0-.118.152-.223.457-.317zm-16.418.985h.562c.118 0 .258.152.422.457v.246c0 .117-.14.258-.422.422-.445 0-.75-.223-.914-.668.118-.305.235-.457.352-.457zm.316 2.496c.61.047.914.34.914.879l-.351.246h-.457c-.117 0-.258-.153-.422-.457v-.352c0-.094.105-.2.316-.316zm15.293 1.793h.457c.118 0 .235.117.352.351v.317c0 .164-.082.246-.246.246-.516 0-.774-.27-.774-.809l.211-.105zm-3.234.914c.117.328.34.586.668.773h.316v-.351c0-.094-.258-.352-.773-.774-.14 0-.211.117-.211.352zm-10.02-.246h.106c.515 0 .89.304 1.125.914-.14.328-.293.515-.457.562h-.211c-.68-.094-1.02-.433-1.02-1.02 0-.117.153-.269.457-.456zm8.543.914c-.14.68-.21 1.054-.21 1.125h.21c.563 0 .868-.117.914-.352a1.604 1.604 0 0 0-.703-.773h-.21zm-1.687.773c0 .07-.035.106-.106.106.07.609.258.914.563.914.586-.258.879-.446.879-.563v-.105c-.703-.235-1.149-.352-1.336-.352zm13.57-18.808c1.266.14 2.016.21 2.25.21.774-.07 1.406-.105 1.899-.105.351.14.539.293.562.457v1.23c0 .118.152.235.457.352 2.438-.914 3.973-1.371 4.606-1.371h2.039c2.32 0 3.925 1.277 4.816 3.832l.106.668c0 4.29-.563 9.21-1.688 14.766-1.031.234-1.547.492-1.547.773 0 .82-.422 1.23-1.265 1.23l-1.125-.21c-.82.21-1.336.316-1.547.316-.47 0-.891-.258-1.266-.773v-.106c.375-1.336.563-2.203.563-2.601l-.106-.774c.445-1.266.856-4.16 1.23-8.683 0-1.946-.562-2.918-1.687-2.918h-.422c-.773 0-1.605.562-2.496 1.687-.21.633-.55 1.043-1.02 1.23-.82 1.196-1.64 4.465-2.46 9.81 0 1.335-.223 2.003-.668 2.003-.282 0-.692.34-1.23 1.02h-.141c-3.141 0-4.711-.258-4.711-.774v-.246c.68-2.273 1.02-3.621 1.02-4.043-.517-.797-.786-1.43-.81-1.898l2.04-9.563v-2.039c0-.68.632-1.242 1.898-1.687.188-.985.422-1.582.703-1.793zm-1.265 15.187l.562-.352h.703c.375.211.563.516.563.915-.164.304-.352.457-.563.457-.75-.188-1.125-.457-1.125-.809-.117 0-.422 1.125-.914 3.375 0 .75.492 1.125 1.477 1.125.96 0 1.441-.668 1.441-2.004.984-6.117 2.227-9.832 3.727-11.144.375-.844.562-1.336.562-1.477v-.21c-1.289-.563-1.933-1.056-1.933-1.477.164-.891.246-1.372.246-1.442 0-.68-.75-1.02-2.25-1.02-.657 0-1.067 1.5-1.23 4.5l-1.266 9.458v.105zm10.933-13.043c.82 0 1.23.34 1.23 1.02 0 .07-.152.293-.456.668 1.125.984 1.687 2.52 1.687 4.605-.094 4.031-.246 6.469-.457 7.313 0 .117.152.27.457.457a.83.83 0 0 1 .352-.106c.398 0 .738.223 1.02.668v.317c0 .117-.153.269-.458.457-.187 0-.644-.106-1.371-.317-.14.281-.21.692-.21 1.23v.317c0 .117.116.234.35.352a20.23 20.23 0 0 1 1.794-.106h.105c.61 0 1.207-3.223 1.793-9.668 0-1.055.082-2.297.246-3.726 0-1.29-.902-2.485-2.707-3.586-.82-.164-1.23-.282-1.23-.352-1.43.07-2.145.223-2.145.457zm-.808.106v.21h.351v-.21h-.351zm3.515.351c.656 0 .985.293.985.879v.246c0 .094-.106.2-.317.317h-.808c-.375-.188-.563-.48-.563-.88v-.14c.164-.281.398-.422.703-.422zm-10.582.211c.328.14.516.293.563.457v.317c0 .117-.153.269-.457.457h-.106c-.539 0-.808-.223-.808-.668.117-.375.386-.563.808-.563zm5.625.457l-.105.211c.023.164.093.246.21.246l.106-.246c0-.14-.07-.21-.21-.21zm-1.687.457c.117.375.34.563.668.563l.105-.246c0-.118-.152-.27-.457-.457h-.105l-.211.14zm-4.852.985h.457c.375 0 .75.117 1.125.351l.668-.105c.75.093 1.125.433 1.125 1.02-.023.14-.21.28-.562.421-.188 0-.563-.14-1.125-.422l-1.02.317c-.75-.188-1.125-.563-1.125-1.125 0-.118.152-.27.457-.457zm12.832.246h.457c.328.187.55.445.668.773-.094.375-.351.563-.773.563-.328-.094-.563-.282-.703-.563v-.457c0-.094.117-.2.351-.316zm-12.937 2.25h.668c.445.257.668.632.668 1.125-.141.328-.282.515-.422.562h-.246c-.68-.094-1.02-.433-1.02-1.02v-.351c0-.094.117-.2.352-.316zm12.832.457h.316c.61 0 .914.293.914.879v.105c0 .117-.117.234-.351.352h-.563c-.094 0-.281-.188-.562-.563v-.562c.023-.141.105-.211.246-.211zm-13.29 2.109h.247c.398 0 .691.187.879.563v.457c0 .117-.106.234-.317.351h-.14c-.375 0-.704-.187-.985-.562v-.457c0-.118.106-.235.317-.352zm13.044.563h.246c.586.07.879.34.879.808-.094.305-.2.457-.317.457h-.351c-.516 0-.774-.27-.774-.808.117-.305.223-.457.317-.457zm-13.254 2.039c.398 0 .691.187.879.562V27c0 .117-.106.234-.317.352h-.457c-.094 0-.281-.188-.562-.563v-.21c0-.118.152-.235.457-.352zm12.691 1.02h.246c.399 0 .656.151.774.456v.422c0 .117-.106.234-.317.352h-.14c-.399 0-.692-.188-.88-.563v-.352c0-.093.106-.199.317-.316zm-13.816 3.585h.21c.422 0 .727.188.915.563 0 .398-.118.62-.352.668h-.457c-.094 0-.281-.188-.562-.563v-.422c.023-.164.105-.246.246-.246zm26.05-18.316c1.055.515 3.34.89 6.856 1.125 3.984 2.203 5.976 5.238 5.976 9.105 0 1.125-.375 2.438-1.125 3.938h-.105c-.938-.07-1.5-.106-1.688-.106-.304.07-.457.293-.457.668v.317c0 .187.07.527.211 1.019-.492 3.54-.937 5.309-1.336 5.309-.328 0-1.148.632-2.46 1.898-.329.14-.938.211-1.829.211h-.105c-4.5 0-8.168-1.723-11.004-5.168-1.36-2.695-2.04-4.605-2.04-5.73 0-4.43 1.243-7.688 3.727-9.774 1.547-1.875 3.34-2.812 5.38-2.812zm-6.75 14.062c0 2.367 1.688 4.535 5.063 6.504 2.32.61 4.348.914 6.082.914 1.125 0 2.285-.492 3.48-1.476.235-.446.352-1.114.352-2.004l-.352-.246c-.586.187-.925.41-1.02.668l.352 1.125c0 .117-.117.234-.351.351h-.422c-.258 0-.492-.375-.703-1.125h-.211c-.68.14-1.172.211-1.477.211h-.984c-3.07 0-5.215-1.312-6.434-3.938l-.105-1.125v-.562c0-.164.492-.422 1.476-.773.891.234 1.711.351 2.461.351h.352c1.008 0 1.828-.082 2.46-.246v-.21c-.14-.68-.327-1.02-.562-1.02-.375.515-.597.773-.668.773h-.246c-.304 0-.714-.258-1.23-.773-.399.515-.738.773-1.02.773-.445-.047-.668-.117-.668-.21l-.562.105h-.457c-.914-.961-1.547-1.442-1.899-1.442-.515 0-.773-.27-.773-.808 0-.094.105-.2.316-.317h.106c.187 0 .527.07 1.02.211.234-.375.386-.902.456-1.582h-.105c-.258.164-.48.246-.668.246-.305 0-.54-.152-.703-.457v-.457c0-.117.117-.234.351-.352h.457c.118 0 .375.27.774.81.117 0 .715-.645 1.793-1.934 1.078-.961 2.578-1.442 4.5-1.442h.351c2.508 0 4.196 1.348 5.063 4.043.117 1.57.305 2.356.562 2.356h.211c0-.399.188-.692.563-.88h.246c.117 0 .27.141.457.422v.458c-.375.75-.68 1.125-.914 1.125-.492-.141-.832-.211-1.02-.211-.28 0-.62.187-1.02.562-.726-.234-1.136-.351-1.23-.351-.07 0-.293.152-.668.457-.375 0-.82-.34-1.335-1.02l-.141.246v.563c0 .445 1.055.668 3.164.668 2.39 0 3.586-.305 3.586-.914.234-1.079.351-1.864.351-2.356 0-3.375-1.722-5.883-5.168-7.523-.82-.235-1.417-.352-1.792-.352h-1.829c-1.593 0-3.539.715-5.836 2.145-1.406.96-2.566 3.28-3.48 6.96-.234 1.336-.352 2.356-.352 3.06zm11.25-11.812c.54.164.809.421.809.773h.21c.282-.234.505-.351.669-.351.539.164.809.468.809.914 0 .117-.118.234-.352.351-.375 0-.867-.187-1.477-.562-.234.14-.457.21-.668.21l-.773-.21c-.328.28-.633.421-.914.421-.586 0-.961-.187-1.125-.562v-.316c.164-.305.387-.457.668-.457l1.125.105c.422-.21.762-.316 1.02-.316zm-4.043.984c.47.164.727.352.774.563v.246c0 .117-.14.27-.422.457-.422 0-.727-.188-.914-.563v-.246c.023-.14.21-.293.562-.457zm-2.355.809h.316c.61 0 .914.293.914.878-.28.235-.503.352-.668.352-.68-.14-1.02-.445-1.02-.914l.458-.316zm9.773.316h.457c.118 0 .27.152.457.457v.246c0 .094-.117.2-.351.317h-.563c-.21-.07-.316-.293-.316-.668 0-.118.105-.235.316-.352zm-10.582.914c.118 0 .27.152.457.457v.317c0 .164-.07.246-.21.246h-.563c-.234-.07-.352-.293-.352-.668.07-.235.293-.352.668-.352zm.809 4.606c.047.304.34.457.879.457h4.957c1.805 0 2.707-.153 2.707-.457v-.457c0-2.11-1.5-3.305-4.5-3.586-1.477 0-2.79 1.16-3.938 3.48l-.105.563zm11.25-3.832h.105c.516 0 .774.269.774.808 0 .211-.14.317-.422.317-.54-.094-.809-.235-.809-.422v-.352c0-.117.118-.234.352-.352zm.668 2.144h.457c.094 0 .246.188.457.563v.351c0 .094-.117.2-.352.317h-.105c-.54 0-.809-.258-.809-.774v-.105c0-.118.118-.235.352-.352zm-15.082 3.059c.422 0 .726.187.914.562v.317c0 .117-.117.234-.352.351-.398 0-.691-.187-.879-.562v-.352c0-.094.106-.2.317-.316zm-.316 1.793h.105c.398 0 .691.187.879.562v.457c0 .094-.106.2-.317.317h-.562c-.117 0-.27-.188-.457-.563v-.457c0-.094.117-.2.351-.316zm.316 1.687h.105c.422 0 .727.188.914.563v.457c0 .093-.117.199-.351.316h-.422c-.117 0-.305-.187-.563-.562v-.457c0-.094.106-.2.317-.317zm3.27.457l-.212.317c.985 1.664 2.778 2.496 5.38 2.496 2.671-.282 4.253-1.078 4.745-2.391v-.105h-.14c-.563 0-1.078.035-1.547.105-1.898-.281-4.64-.422-8.227-.422zm-2.25 1.442c.445 0 .667.27.667.808v.106c0 .093-.105.199-.316.316h-.457c-.211 0-.363-.293-.457-.879l.562-.351zm1.898 1.582c.351.14.539.293.562.457v.457c0 .14-.07.21-.21.21h-.563c-.117 0-.27-.152-.457-.456v-.317c.07-.234.293-.351.668-.351zm1.582.668h.562c.118 0 .305.187.563.562v.352c-.07.21-.293.316-.668.316a1.067 1.067 0 0 1-.668-.563v-.421c.023-.164.094-.246.21-.246zm4.957.351c.75.094 1.125.246 1.125.457v.422c0 .117-.152.27-.457.457h-.106c-.398 0-.703-.187-.914-.562v-.458c0-.093.118-.199.352-.316zm-1.688.106c.446.164.668.468.668.914l-.457.316h-.21c-.399 0-.704-.187-.915-.562v-.106c.211-.375.516-.562.914-.562zm16.7-16.875h1.125c1.359 0 3.047.492 5.062 1.476l1.371 1.23v.458c-1.64 1.476-2.66 2.296-3.058 2.46h-.106a1.008 1.008 0 0 0-.457-.105c-.656.516-1.101.774-1.336.774-.187 0-.902-.41-2.144-1.23l-.563-.106c-.328 0-.633.187-.914.562 0 .984.867 1.84 2.602 2.567 2.93.914 4.394 2.648 4.394 5.203v.879c0 1.757-1.02 3.375-3.058 4.851 0 .984-1.5 1.652-4.5 2.004h-.88c-3.046 0-5.636-1.312-7.769-3.938v-.421c.633-.493 1.16-1.395 1.582-2.707l.211-.106c.445 0 .856.14 1.23.422.305 0 .68-.223 1.126-.668h.246l2.004 2.25c.632.445 1.312.668 2.039.668 1.054-.422 1.582-.937 1.582-1.547 0-.867-1.723-2.074-5.168-3.621-.985-.75-1.477-1.535-1.477-2.355v-.106c0-2.11.715-4.394 2.145-6.855.867-1.36 2.437-2.04 4.71-2.04zm1.23 1.335v1.02c.14.305.41.457.809.457h.105l-.105-1.125.21-.105h.458c.117 0 .234.105.351.316v.457c0 .07-.234.293-.703.668.516.328 1.266.703 2.25 1.125l1.266-1.23v-.211c-.282-.446-.621-.668-1.02-.668l.106.773v.106c-.07.234-.293.351-.668.351-.446-.07-.668-.293-.668-.668 0-.375.328-.562.984-.562 0-.375-.82-.68-2.46-.914h-.669c-.164.023-.246.093-.246.21zm-4.36.81v.21h.212c.375 0 .972.27 1.793.809.093 0 .504-.153 1.23-.457v-.106c0-.117-.105-.234-.316-.351-.422.07-.727.105-.914.105-.657-.516-1.102-.773-1.336-.773a1.067 1.067 0 0 0-.668.562zm-2.038 4.605c.398 1.64 1.218 2.988 2.46 4.043l3.376 1.793c1.054 1.078 1.699 1.945 1.933 2.601.586.188.88.375.88.563v.351c0 .14-.071.211-.212.211-.14 0-.515-.07-1.125-.21l-.105.21v.106c0 .093.34.316 1.02.668h.21c1.196-.985 1.793-2.11 1.793-3.376 0-1.64-.527-2.87-1.582-3.69-3.516-1.384-5.273-2.59-5.273-3.622-.188-.023-.34-.844-.457-2.46-.305 0-.68-.493-1.125-1.477-.54 0-1.137 1.09-1.793 3.269v1.02zm1.336-2.04h.457c.304.141.457.41.457.81 0 .093-.117.198-.352.316h-.316c-.117 0-.27-.141-.457-.422v-.457c.023-.164.093-.247.21-.247zm.808 2.25c.469.165.727.352.774.563v.352c0 .117-.106.234-.317.351h-.14c-.516 0-.774-.27-.774-.808 0-.118.153-.27.457-.457zm1.793 1.829c.399 0 .703.187.914.562v.317c0 .117-.117.234-.351.351h-.211c-.422 0-.692-.152-.809-.457v-.352c0-.117.152-.257.457-.421zm1.793 1.547h.352c.398 0 .656.152.773.457v.457c0 .117-.105.234-.316.351-.563 0-.938-.187-1.125-.562v-.352c0-.117.105-.234.316-.352zm2.04 1.37c.515.212.773.551.773 1.02-.118.281-.223.422-.317.422h-.246c-.398 0-.738-.223-1.02-.668V27c0-.164.27-.27.81-.316zm.316 2.005h.703c.21.093.316.328.316.703v.105c0 .094-.105.2-.316.317h-.14c-.4 0-.657-.141-.774-.422v-.457c.023-.164.093-.247.21-.247zm-9.211 2.144l1.125.668v-.21c-.07-.235-.328-.575-.774-1.02-.234 0-.351.187-.351.562zm-.774 1.125l-.246.563c0 .585 1.09 1.183 3.27 1.792.117.094.34.141.668.141.14 0 .363-.082.668-.246-.07-1.195-.211-1.793-.422-1.793h-.352l-.773.773h-.14c-.259 0-.74-.292-1.442-.878-.75-.235-1.16-.352-1.23-.352zm7.735.457c0 .399.187.703.562.914h.246c.14 0 .211-.082.211-.246v-.21a1.067 1.067 0 0 0-.668-.563.83.83 0 0 1-.351.105zm-1.899.457c0 .07-.035.176-.105.316.07.54.293.81.668.81l.105-.247v-.668c0-.14-.07-.21-.21-.21h-.458zm15.293-17.894h1.125c1.36 0 3.047.492 5.063 1.476l1.37 1.23v.458c-1.64 1.476-2.66 2.296-3.058 2.46h-.105a1.008 1.008 0 0 0-.457-.105c-.657.516-1.102.774-1.336.774-.188 0-.903-.41-2.145-1.23l-.562-.106c-.328 0-.633.187-.914.562 0 .984.867 1.84 2.601 2.567 2.93.914 4.395 2.648 4.395 5.203v.879c0 1.757-1.02 3.375-3.059 4.851 0 .984-1.5 1.652-4.5 2.004h-.879c-3.047 0-5.636-1.312-7.77-3.938v-.421c.634-.493 1.16-1.395 1.583-2.707l.21-.106c.446 0 .856.14 1.231.422.305 0 .68-.223 1.125-.668h.246l2.004 2.25c.633.445 1.313.668 2.04.668 1.054-.422 1.581-.937 1.581-1.547 0-.867-1.722-2.074-5.168-3.621-.984-.75-1.476-1.535-1.476-2.355v-.106c0-2.11.715-4.394 2.144-6.855.867-1.36 2.438-2.04 4.711-2.04zm1.23 1.335v1.02c.141.305.41.457.81.457h.105l-.106-1.125.211-.105h.457c.117 0 .235.105.352.316v.457c0 .07-.235.293-.703.668.515.328 1.265.703 2.25 1.125l1.265-1.23v-.211c-.281-.446-.62-.668-1.02-.668l.106.773v.106c-.07.234-.293.351-.668.351-.445-.07-.668-.293-.668-.668 0-.375.328-.562.985-.562 0-.375-.82-.68-2.461-.914h-.668c-.164.023-.246.093-.246.21zm-4.359.81v.21h.211c.375 0 .973.27 1.793.809.094 0 .504-.153 1.23-.457v-.106c0-.117-.105-.234-.316-.351-.422.07-.726.105-.914.105-.656-.516-1.101-.773-1.336-.773a1.067 1.067 0 0 0-.668.562zm-2.039 4.605c.399 1.64 1.219 2.988 2.461 4.043l3.375 1.793c1.055 1.078 1.7 1.945 1.934 2.601.586.188.879.375.879.563v.351c0 .14-.07.211-.211.211-.14 0-.516-.07-1.125-.21l-.106.21v.106c0 .093.34.316 1.02.668h.21c1.196-.985 1.794-2.11 1.794-3.376 0-1.64-.528-2.87-1.582-3.69-3.516-1.384-5.274-2.59-5.274-3.622-.187-.023-.34-.844-.457-2.46-.305 0-.68-.493-1.125-1.477-.539 0-1.137 1.09-1.793 3.269v1.02zm1.336-2.04h.457c.305.141.457.41.457.81 0 .093-.117.198-.351.316h-.317c-.117 0-.27-.141-.457-.422v-.457c.024-.164.094-.247.211-.247zm.809 2.25c.468.165.726.352.773.563v.352c0 .117-.105.234-.316.351h-.14c-.517 0-.774-.27-.774-.808 0-.118.152-.27.457-.457zm1.793 1.829c.398 0 .703.187.914.562v.317c0 .117-.117.234-.352.351h-.21c-.423 0-.692-.152-.81-.457v-.352c0-.117.153-.257.458-.421zm1.793 1.547h.351c.399 0 .656.152.774.457v.457c0 .117-.106.234-.317.351-.562 0-.937-.187-1.125-.562v-.352c0-.117.106-.234.317-.352zm2.039 1.37c.515.212.773.551.773 1.02-.117.281-.222.422-.316.422h-.246c-.399 0-.739-.223-1.02-.668V27c0-.164.27-.27.809-.316zm.316 2.005h.703c.211.093.317.328.317.703v.105c0 .094-.106.2-.317.317h-.14c-.399 0-.657-.141-.774-.422v-.457c.024-.164.094-.247.211-.247zm-9.21 2.144l1.124.668v-.21c-.07-.235-.328-.575-.773-1.02-.235 0-.352.187-.352.562zm-.774 1.125l-.246.563c0 .585 1.09 1.183 3.27 1.792.116.094.339.141.667.141.14 0 .363-.082.668-.246-.07-1.195-.21-1.793-.422-1.793h-.351l-.774.773h-.14c-.258 0-.739-.292-1.442-.878-.75-.235-1.16-.352-1.23-.352zm7.734.457c0 .399.188.703.563.914h.246c.14 0 .21-.082.21-.246v-.21a1.067 1.067 0 0 0-.667-.563.83.83 0 0 1-.352.105zm-1.898.457c0 .07-.035.176-.106.316.07.54.293.81.668.81l.106-.247v-.668c0-.14-.07-.21-.211-.21h-.457z" fill="#000" fill-rule="evenodd"/></svg>
