<?xml version="1.0" standalone="no"?>
<!DOCTYPE svg PUBLIC "-//W3C//DTD SVG 20010904//EN"
 "http://www.w3.org/TR/2001/REC-SVG-20010904/DTD/svg10.dtd">
<svg version="1.0" xmlns="http://www.w3.org/2000/svg"
 width="700.000000pt" height="700.000000pt" viewBox="0 0 700.000000 700.000000"
 preserveAspectRatio="xMidYMid meet">
<metadata>
Created by potrace 1.11, written by Peter Selinger 2001-2013
</metadata>
<g transform="translate(0.000000,700.000000) scale(0.100000,-0.100000)"
fill="#000000" stroke="none">
<path d="M2597 6924 c-1 -1 -54 -5 -117 -8 -63 -3 -126 -8 -140 -10 -14 -3
-47 -7 -74 -11 -27 -3 -52 -8 -55 -10 -3 -1 -31 -6 -61 -10 -30 -4 -63 -11
-72 -16 -10 -5 -18 -8 -18 -5 0 4 -124 -29 -233 -64 -37 -11 -115 -41 -174
-66 -606 -254 -1101 -737 -1362 -1331 -63 -143 -134 -357 -155 -463 -3 -14
-12 -59 -20 -100 -34 -173 -44 -291 -41 -505 2 -175 8 -262 21 -340 18 -111
28 -162 50 -250 14 -55 27 -107 29 -115 30 -128 187 -483 256 -582 11 -14 19
-29 19 -31 0 -12 116 -176 188 -267 109 -137 328 -353 426 -419 12 -8 23 -18
26 -21 12 -16 204 -141 295 -193 296 -167 654 -281 990 -315 95 -10 462 -9
559 1 229 24 529 107 761 210 161 72 408 219 525 314 519 421 835 942 954
1578 44 233 53 561 21 770 -2 17 -7 48 -9 70 -31 241 -129 545 -258 795 -53
104 -190 319 -250 394 -285 358 -611 610 -1028 794 -89 39 -310 114 -374 126
-12 3 -50 11 -86 20 -36 8 -83 17 -105 21 -22 3 -56 8 -75 11 -19 3 -45 7 -58
9 -48 8 -349 24 -355 19z m283 -517 c207 -38 318 -140 337 -311 14 -131 -8
-224 -79 -330 -113 -167 -374 -357 -493 -358 -84 -2 -245 94 -384 226 -136
131 -193 241 -197 376 -5 237 113 367 361 396 28 4 52 8 54 10 6 6 368 -3 401
-9z m-1630 -1027 c122 -34 207 -103 292 -242 105 -170 173 -441 131 -522 -42
-81 -200 -211 -348 -286 -175 -89 -312 -101 -456 -41 -168 70 -236 189 -217
381 18 192 116 463 213 595 92 125 215 161 385 115z m3066 -21 c110 -66 193
-211 271 -469 107 -356 39 -536 -236 -626 -101 -33 -250 -7 -396 67 -142 73
-301 203 -340 279 -67 128 84 539 250 683 82 71 195 108 313 103 72 -3 89 -8
138 -37z m-1566 -641 c95 -24 196 -110 237 -203 118 -263 -62 -547 -347 -547
-346 0 -510 423 -257 663 96 92 224 122 367 87z m980 -1177 c139 -25 255 -79
322 -148 82 -85 136 -222 125 -315 -15 -125 -140 -271 -360 -422 -190 -129
-347 -179 -463 -147 -126 35 -254 189 -279 336 -24 149 20 376 105 545 58 115
98 145 209 157 31 3 58 7 60 9 8 7 218 -4 281 -15z m-1780 -21 c26 -6 61 -24
77 -38 101 -95 203 -378 203 -566 0 -140 -40 -236 -140 -336 -152 -152 -334
-131 -648 77 -143 94 -257 205 -298 288 -25 51 -29 71 -28 136 0 66 5 84 39
155 69 139 175 219 352 265 141 36 336 45 443 19z"/>
<path d="M5047 5893 c155 -229 306 -583 371 -866 l15 -69 116 -96 c128 -107
398 -369 448 -435 18 -23 44 -55 59 -72 33 -38 130 -182 172 -256 43 -76 98
-220 115 -304 28 -138 9 -380 -45 -560 -60 -197 -129 -328 -349 -660 -190
-288 -268 -427 -339 -612 -31 -78 -69 -212 -76 -268 -2 -16 -10 -59 -16 -95
-16 -92 -16 -369 1 -455 69 -353 293 -654 656 -882 103 -66 369 -193 379 -182
6 8 176 525 176 537 0 6 -5 12 -11 12 -21 0 -165 72 -243 122 -215 136 -340
289 -385 470 -34 137 -13 359 50 551 55 166 113 270 319 582 185 279 275 440
340 605 54 139 96 302 114 437 13 94 14 376 3 438 -35 184 -70 291 -153 461
-246 507 -779 1029 -1570 1540 -199 129 -193 126 -147 57z"/>
</g>
</svg>
